<svg width="339" height="94" viewBox="0 0 339 94" fill="none" xmlns="http://www.w3.org/2000/svg">
<path d="M176.255 36.9277C175.241 36.7587 174.227 36.6621 173.188 36.6621H172.922C167.996 36.6621 163.479 38.57 160.146 41.6614V36.6138H154.084V74.6761H160.146V55.4759C160.146 48.4479 165.894 42.724 172.922 42.724H173.164C174.227 42.724 175.265 42.8689 176.255 43.1104V36.9277Z" fill="white"/>
<path d="M143.169 41.9029C139.498 38.4493 134.692 36.6138 129.62 36.7828C119.79 37.0968 111.772 45.0184 111.313 54.8479C111.072 60.0404 112.932 64.9673 116.506 68.7349C120.08 72.5025 124.911 74.5795 130.127 74.6278H130.393C135.32 74.6278 139.788 72.7198 143.145 69.6285V74.6761H149.255V36.6138H143.193V41.9029H143.169ZM143.121 55.7898C143.121 62.842 137.397 68.5658 130.369 68.5658H130.127C126.601 68.5658 123.317 67.1168 120.877 64.5567C118.438 61.9967 117.206 58.6397 117.351 55.1136C117.641 48.4479 123.099 43.0621 129.789 42.8448C129.934 42.8448 130.079 42.8448 130.2 42.8448C133.581 42.8448 136.745 44.1248 139.184 46.4916C141.72 48.955 143.145 52.2638 143.121 55.7898Z" fill="white"/>
<path d="M278.391 36.6622H278.126C273.199 36.6622 268.707 38.5701 265.35 41.6615V36.6139H259.264V74.6762H265.326V56.8526V56.4662V55.476C265.326 48.448 271.074 42.7242 278.102 42.7242H278.343C281.869 42.7242 285.154 44.1732 287.593 46.7333C290.032 49.2933 291.264 52.6503 291.119 56.1764V74.6762H297.181V56.3696C297.398 51.2012 295.563 46.2985 291.989 42.5551C288.414 38.7875 283.584 36.7105 278.367 36.6622H278.391Z" fill="white"/>
<path d="M248.661 41.9029C244.99 38.4493 240.183 36.6138 235.112 36.7828C225.282 37.0968 217.264 45.0184 216.805 54.8479C216.564 60.0404 218.423 64.9673 221.998 68.7349C225.572 72.5025 230.402 74.5795 235.619 74.6278H235.885C240.811 74.6278 245.279 72.7198 248.636 69.6285V74.6761H254.747V36.6138H248.685V41.9029H248.661ZM248.612 55.7898C248.612 62.842 242.888 68.5658 235.86 68.5658H235.619C232.093 68.5658 228.808 67.1168 226.369 64.5567C223.93 61.9967 222.698 58.6397 222.843 55.1136C223.133 48.4479 228.591 43.0621 235.281 42.8448C235.426 42.8448 235.571 42.8448 235.691 42.8448C239.072 42.8448 242.236 44.1248 244.676 46.4916C247.211 48.955 248.636 52.2638 248.612 55.7898Z" fill="white"/>
<path d="M338.068 56.0071C338.093 50.8146 336.064 45.9602 332.345 42.3375C328.625 38.7148 323.698 36.8069 318.506 36.9518C308.676 37.2657 300.634 45.2115 300.175 55.041C299.934 60.2336 301.793 65.1845 305.368 68.9521C308.942 72.7197 313.772 74.8209 319.013 74.845H319.279C329.664 74.845 338.117 66.3921 338.117 56.0071H338.068ZM319.279 68.7589H319.037C315.511 68.7589 312.227 67.3099 309.787 64.7498C307.348 62.1898 306.092 58.8328 306.261 55.2825C306.551 48.6168 312.033 43.2069 318.699 43.0137C318.844 43.0137 318.989 43.0137 319.11 43.0137C322.491 43.0137 325.679 44.2937 328.094 46.6606C330.63 49.124 332.007 52.4327 331.982 55.9588H332.031C332.031 63.0351 326.307 68.7589 319.279 68.7589Z" fill="white"/>
<path d="M207.87 41.9022C204.175 38.4485 199.393 36.6131 194.321 36.7821C184.492 37.0961 176.473 45.0177 176.015 54.8472C175.773 60.0397 177.633 64.9666 181.207 68.7342C184.781 72.5018 189.612 74.5788 194.828 74.6271H195.094C199.997 74.6271 204.441 72.7433 207.798 69.6761V74.4822C207.798 81.5102 202.074 87.234 195.046 87.234H194.804C191.495 87.2099 188.38 85.954 186.013 83.6596L181.714 87.9585C185.24 91.388 189.829 93.2718 194.78 93.3201H195.046C205.431 93.3201 213.86 84.8913 213.86 74.5063V54.8472H213.956V36.6372H207.894V41.9263L207.87 41.9022ZM207.773 56.7793C207.29 63.3726 201.784 68.5651 195.07 68.5651H194.828C191.302 68.5651 188.018 67.116 185.578 64.556C183.139 61.996 181.907 58.639 182.052 55.1129C182.342 48.4472 187.8 43.0614 194.49 42.8441C194.635 42.8441 194.78 42.8441 194.901 42.8441C198.282 42.8441 201.446 44.1241 203.885 46.4909C206.421 48.9543 207.798 52.263 207.773 55.7891V56.7793Z" fill="white"/>
<path d="M49.2443 0C7.89744 0 0 93.2962 0 93.2962H1.64228C5.79629 67.0921 17.9685 10.4816 49.027 10.4816C80.0854 10.4816 91.4848 63.6868 96.0252 90.7844H72.4295C72.2121 89.3595 71.9706 87.8863 71.705 86.3889C71.2944 84.1187 70.8597 81.7519 70.3283 79.4092H82.6938C78.2499 55.3546 68.6619 23.2335 49.2685 23.2335C29.8751 23.2335 22.364 55.3546 17.8961 79.4092H18.4274C23.6923 57.6248 33.2321 29.0781 49.3409 29.0781C65.4498 29.0781 73.8786 55.4995 79.216 76.8975H69.7729C66.0294 60.692 59.7018 43.3031 49.2926 43.3031C38.328 43.3031 33.9566 62.5033 30.2856 79.3609H67.8408C68.4445 81.6794 69.0242 84.0221 69.5314 86.3406C70.0627 88.6833 70.5457 91.0018 70.9804 93.1995H98.537C98.537 93.1995 90.5912 0 49.2443 0ZM33.3528 76.9458C37.048 63.5177 40.9846 49.2443 49.2926 49.2443C57.6007 49.2443 63.3003 63.2279 67.1162 76.9458H33.3287H33.3528Z" fill="#FF5C00"/>
</svg>
