<svg width="185" height="41" viewBox="0 0 185 41" fill="none" xmlns="http://www.w3.org/2000/svg">
<g clip-path="url(#clip0_2535_2191)">
<path d="M27.8188 22.0456C27.1578 25.5231 25.6237 28.2275 23.2286 30.1179C20.8213 32.0219 17.8516 32.9739 14.321 32.9739C9.86717 32.9739 6.36235 31.4625 3.81711 28.4292C1.27186 25.3973 0 21.3983 0 16.423C0 11.4493 1.32189 7.42599 3.95505 4.45629C6.58671 1.48659 10.1416 0.000976562 14.6332 0.000976562C18.0259 0.000976562 20.8955 0.965106 23.2407 2.88124C25.5858 4.79889 27.0714 7.48966 27.7066 10.9414H22.9542C22.4676 8.83429 21.4822 7.18496 19.9981 5.97828C18.5125 4.77312 16.654 4.17584 14.4089 4.17584C11.6772 4.17584 9.43059 5.25518 7.67211 7.40022C5.91363 9.55738 5.04046 12.5529 5.04046 16.423C5.04046 20.2947 5.91363 23.2765 7.64785 25.4852C9.3942 27.6939 11.6514 28.7975 14.4468 28.7975C16.7161 28.7975 18.6004 28.2018 20.0967 27.0209C21.5944 25.8415 22.5797 24.1785 23.0785 22.0335H27.8324L27.8188 22.0456ZM41.7047 8.22488C38.9972 8.22488 36.7521 8.94798 34.9558 10.3957C33.1594 11.8419 32.1604 13.7959 31.9618 16.2593H36.4899C36.5763 14.7995 37.0508 13.6701 37.9118 12.8955C38.7729 12.1208 39.9826 11.7282 41.5425 11.7282C44.873 11.7282 46.545 13.5807 46.545 17.2992V17.7813C44.9109 17.9602 43.4632 18.1375 42.2277 18.327C40.9937 18.518 39.7461 18.7591 38.4985 19.0516C37.2509 19.3427 36.1897 19.6974 35.3287 20.1037C34.4692 20.51 33.6824 20.992 32.9714 21.5514C32.2605 22.1093 31.7359 22.7566 31.3994 23.5054C31.0629 24.2543 30.8764 25.0926 30.8764 26.031C30.8764 28.1381 31.6495 29.8253 33.2094 31.082C34.7678 32.3387 36.7521 32.9739 39.1594 32.9739C42.9023 32.9739 45.4839 31.743 46.9316 29.2796C46.9938 30.2695 47.1181 31.3109 47.3182 32.4024H51.0473C51.061 27.5166 51.0731 18.3407 51.0731 18.2255C51.161 11.5508 48.0413 8.21276 41.7047 8.21276V8.22488ZM46.7573 22.8839C46.7573 25.1047 46.1585 26.7677 44.9473 27.8455C43.7375 28.9249 42.1413 29.4706 40.1569 29.4706C38.8093 29.4706 37.7375 29.1538 36.9386 28.5307C36.1534 27.8971 35.7531 27.0466 35.7531 25.9673C35.7531 24.509 36.6142 23.4418 38.3484 22.7566C40.0705 22.0835 42.8765 21.5514 46.7694 21.1709V22.8839H46.7573ZM68.6761 13.4927C67.865 13.4033 67.0904 13.3654 66.3431 13.3654C64.5588 13.3654 63.2369 13.8732 62.3759 14.901C61.5148 15.9288 61.0782 17.6418 61.0782 20.0415V32.4145H56.5865V8.78275H60.9903V12.9591C62.2501 10.1789 64.3966 8.75849 67.4148 8.69482C67.9894 8.69482 68.4138 8.70695 68.6624 8.74485V13.4927H68.6761ZM71.8807 2.72965H76.3724V8.78275H80.9505V12.2482H76.3724V25.7263C76.3724 26.9572 76.5346 27.7697 76.8712 28.1639C77.1956 28.5565 77.9187 28.7596 79.0041 28.7596H80.9005V32.4024H77.62C75.287 32.4024 73.7529 32.0083 73.004 31.2215C72.2552 30.4347 71.8807 28.8112 71.8807 26.3478V2.72965ZM94.7485 8.22488C92.0411 8.22488 89.796 8.94798 87.9996 10.3957C86.2032 11.8419 85.2042 13.7959 85.0056 16.2593H89.5337C89.6216 14.7995 90.0946 13.6701 90.9557 12.8955C91.8167 12.1208 93.0264 11.7282 94.5863 11.7282C97.9168 11.7282 99.5889 13.5807 99.5889 17.2992V17.7813C97.9547 17.9602 96.507 18.1375 95.2715 18.327C94.0375 18.518 92.7899 18.7591 91.5423 19.0516C90.2947 19.3427 89.2336 19.6974 88.374 20.1037C87.513 20.51 86.7262 20.992 86.0152 21.5514C85.3043 22.1093 84.7813 22.7566 84.4432 23.5054C84.1067 24.2543 83.9202 25.0926 83.9202 26.031C83.9202 28.1381 84.6934 29.8253 86.2532 31.082C87.8116 32.3387 89.796 32.9739 92.2033 32.9739C95.9461 32.9739 98.5277 31.743 99.9754 29.2796C100.038 30.2695 100.162 31.3109 100.362 32.4024H104.093C104.117 27.935 104.117 18.3407 104.117 18.2255C104.205 11.5508 101.085 8.21276 94.7485 8.21276V8.22488ZM99.8011 22.8839C99.8011 25.1047 99.2023 26.7677 97.9911 27.8455C96.7814 28.9249 95.1851 29.4706 93.2007 29.4706C91.8546 29.4706 90.7813 29.1538 89.9824 28.5307C89.1972 27.8971 88.797 27.0466 88.797 25.9673C88.797 24.509 89.658 23.4418 91.3922 22.7566C93.1143 22.0835 95.9203 21.5514 99.8132 21.1709V22.8839H99.8011ZM125.088 8.78275H129.578V29.6358C129.578 33.4681 128.743 36.2347 127.071 37.9355C125.287 39.8396 122.581 40.7916 118.962 40.7916C116.293 40.7916 114.084 40.1822 112.364 38.9633C110.641 37.7461 109.606 35.9436 109.257 33.5439H113.872C114.134 34.6869 114.659 35.5374 115.444 36.1089C116.231 36.6788 117.44 36.9593 119.05 36.9593C121.183 36.9593 122.729 36.3878 123.715 35.2448C124.638 34.217 125.1 32.6692 125.1 30.5878V28.0866C123.578 30.6894 121.183 31.9961 117.939 31.9961C115.145 31.9961 112.8 30.9304 110.904 28.7854C109.007 26.6525 108.06 23.7722 108.06 20.1431C108.06 16.5125 109.007 13.6443 110.904 11.5114C112.8 9.39215 115.145 8.32645 117.939 8.32645C121.195 8.32645 123.578 9.63318 125.1 12.236V8.77062L125.088 8.78275ZM118.95 12.1208C117.078 12.1208 115.594 12.8318 114.484 14.2537C113.373 15.6757 112.824 17.6418 112.824 20.1552C112.824 22.6686 113.373 24.6985 114.484 26.1325C115.594 27.5666 117.078 28.2776 118.95 28.2776C120.821 28.2776 122.305 27.5924 123.478 26.2341C124.664 24.8758 125.25 22.846 125.25 20.1552C125.25 17.4645 124.664 15.4847 123.478 14.14C122.293 12.7939 120.783 12.1208 118.95 12.1208ZM153.656 12.2482C151.672 9.65895 148.916 8.36435 145.409 8.36435C141.904 8.36435 139.335 9.48159 137.188 11.7403C135.043 13.9869 133.97 16.9945 133.97 20.5615C133.97 24.127 134.993 27.0845 137.038 29.4448C139.073 31.793 141.904 32.9739 145.535 32.9739C148.329 32.9739 150.624 32.2629 152.42 30.8289C154.217 29.3948 155.402 27.6045 155.975 25.4731H151.459C150.45 27.8713 148.415 29.0765 145.373 29.0765C143.563 29.0765 142.029 28.4428 140.781 27.174C139.521 25.9036 138.798 24.1906 138.598 22.0213H156.288C156.512 18.0996 155.639 14.8374 153.656 12.2482ZM138.686 18.4043C139.259 14.1901 141.492 12.0829 145.373 12.0829C147.181 12.0829 148.665 12.6802 149.813 13.8854C150.961 15.0784 151.559 16.5883 151.622 18.4043H138.686ZM174.05 22.7566C170.322 22.7566 166.711 22.0395 163.308 20.6312L164.078 18.844C167.234 20.1552 170.59 20.8177 174.05 20.8177C177.508 20.8177 180.864 20.1552 184.02 18.844L184.79 20.6312C181.388 22.0395 177.776 22.7566 174.05 22.7566ZM174.956 2.72965H177L172.687 15.7606H170.643L174.956 2.72965ZM183.156 2.72965H181.179V9.73172H183.156V2.72965ZM166.926 2.72965H164.948V9.73172H166.926V2.72965Z" fill="white"/>
</g>
<defs>
<clipPath id="clip0_2535_2191">
<rect width="184.793" height="40.7906" fill="white"/>
</clipPath>
</defs>
</svg>
