<svg width="1205" height="300" viewBox="0 0 1205 300" fill="none" xmlns="http://www.w3.org/2000/svg">
<path d="M69.3501 233.44H26.3401V60.54H69.3601V233.44H69.3501ZM427.56 190.28H290.53C293.49 219.51 309 238.87 339.35 238.87C360.03 238.87 375.36 229.58 383.74 211.88L425.43 224.51C410.63 259.39 377.57 278.49 341.81 278.49C283.35 278.49 245.21 237.47 245.21 180.63C245.21 116 285.97 78.58 339.34 78.58C401.22 78.58 432.13 125.86 427.56 190.28ZM384.66 158.4C381.35 131.02 369.14 115.61 341.13 115.61C313.14 115.61 296.65 129.52 291.51 158.4H384.66ZM966.06 190.28H829.03C831.99 219.51 847.5 238.87 877.85 238.87C898.53 238.87 913.86 229.58 922.24 211.88L963.93 224.51C949.13 259.39 916.07 278.49 880.31 278.49C821.85 278.49 783.71 237.47 783.71 180.63C783.71 116 824.47 78.58 877.84 78.58C939.72 78.58 970.63 125.86 966.06 190.28ZM923.16 158.4C919.85 131.02 907.64 115.61 879.63 115.61C851.64 115.61 835.15 129.52 830.01 158.4H923.16ZM446.46 273.21H488.73V20.74H446.46V273.21ZM519.43 273.21H561.64V83.86H519.43V273.21ZM519.43 64.95H561.64V20.74H519.43V64.95ZM691.98 78.58C667.08 78.58 646.34 88.2 630.07 109.42V83.86H592.34V273.21H635.13V175.92C635.13 143.59 647.07 118.2 679.52 118.2C714.59 118.2 723.68 147.35 723.68 182.06V273.2H766.47V167.48C766.47 121.4 747.96 78.58 691.98 78.58ZM1146.33 156.97V273.21H1109.34V247.65C1092.21 270.21 1071.13 278.49 1042.84 278.49C1002.02 278.49 979.38 252.71 979.38 221.35C979.38 192.25 994.21 174.21 1022.51 164.67C1047.21 156.81 1078.32 153.27 1104.87 149.28C1103.07 125.4 1089.92 117.35 1066.16 117.35C1051.05 117.35 1030.62 123.56 1024.81 143.83L986.22 131.71C990.93 115.74 999.83 102.88 1012.98 93.17C1026.13 83.46 1043.88 78.58 1066.16 78.58C1125.98 78.58 1143.01 111.72 1145.24 134.29C1145.98 141.23 1146.33 148.81 1146.33 156.97ZM1104.35 183.96C1090.42 186.14 1076.23 188.38 1061.1 191.43C1042.43 195.2 1020.78 201.61 1020.78 220.78C1020.78 233.52 1030.12 244.84 1051.28 244.84C1082.45 244.84 1102.75 223.98 1103.94 194.93C1104.17 190.79 1104.35 183.96 1104.35 183.96ZM1104.36 183.22C1104.37 182.96 1104.37 182.82 1104.36 183.22ZM119.37 20.74H69.3501V60.54C69.3501 60.54 91.6801 60.46 106.91 60.54C119.05 60.6 126.17 60.56 134.71 62.44C171.71 69.52 185.77 109.09 185.77 146.98C185.77 184.87 171.72 224.44 134.71 231.52C126.17 233.39 119.05 233.35 106.91 233.42C91.6801 233.5 69.3501 233.42 69.3501 233.42V273.22H119.37C201.23 273.22 230.44 206.06 230.44 146.99C230.44 87.92 201.23 20.74 119.37 20.74Z" fill="#00FF5A"/>
<path d="M1161.85 273.21V263.56H1158.12V262.51H1166.68V263.56H1162.95V273.21H1161.85Z" fill="#00FF5A"/>
<path d="M1167.86 273.21V262.52H1168.86L1173.06 271.51L1177.24 262.52H1178.26V273.21H1177.22V264.96L1173.41 273.22H1172.7L1168.9 264.96V273.22H1167.86V273.21Z" fill="#00FF5A"/>
</svg>
