<svg width="478" height="77" viewBox="0 0 478 77" fill="none" xmlns="http://www.w3.org/2000/svg">
<path d="M66.9637 48.881C66.9637 33.4961 79.2178 21.3123 94.7055 21.3123C110.081 21.3123 122.447 33.4899 122.447 48.881C122.447 64.2658 110.081 76.3379 94.7055 76.3379C79.224 76.3379 66.9637 64.2658 66.9637 48.881ZM94.7055 65.3328C103.626 65.3328 110.724 58.1739 110.724 48.881C110.724 39.4764 103.626 32.3174 94.7055 32.3174C85.5664 32.3174 78.6872 39.4764 78.6872 48.881C78.6872 58.2856 85.5664 65.3328 94.7055 65.3328V65.3328Z" fill="#F3F3EF"/>
<path d="M125.182 22.7019H135.182V8.81216H147.118V22.7019H161.201V33.0681H147.118V56.5734C147.118 61.9146 149.808 64.5884 154.859 64.5884H161.201V74.9545H153.354C141.312 74.9545 135.182 69.3961 135.182 57.4295V33.0681H125.182V22.7019Z" fill="#F3F3EF"/>
<path d="M170.877 22.7019H183.674V27.4042C187.975 23.0245 193.675 21.3123 198.188 21.3123C204.855 21.3123 210.336 24.4079 213.669 29.5382C217.864 24.3024 224.85 21.3123 232.16 21.3123C244.096 21.3123 251.836 29.4328 251.836 42.361V74.9483H239.901V45.1402C239.901 37.2307 235.924 32.3174 229.151 32.3174C223.239 32.3174 217.321 36.3746 217.321 45.2457V74.9483H205.386V45.1402C205.386 37.1252 201.191 32.3174 194.205 32.3174C188.294 32.3174 182.806 36.5917 182.806 46.1018V74.9483H170.871V22.7019H170.877Z" fill="#F3F3EF"/>
<path d="M259.571 60.3141C259.571 50.0596 268.173 42.9007 284.298 42.9007H293.761V41.6166C293.761 35.0967 289.785 31.0395 283.012 31.0395C277.206 31.0395 272.368 34.6748 271.937 40.0161H260.002C260.538 29.011 270.108 21.3185 283.224 21.3185C297.201 21.3185 305.803 29.7616 305.803 42.6898V74.9545H294.086V69.5078C290.646 73.5649 284.841 76.3441 279.141 76.3441C267.312 76.3441 259.571 70.0413 259.571 60.3203V60.3141ZM280.109 67.045C287.956 67.045 294.086 60.7422 294.086 52.5163V51.6602H284.622C275.914 51.6602 271.288 54.5448 271.288 59.9915C271.288 64.1603 274.409 67.045 280.103 67.045H280.109Z" fill="#F3F3EF"/>
<path d="M311.178 22.7019H321.178V8.81216H333.114V22.7019H347.197V33.0681H333.114V56.5734C333.114 61.9146 335.805 64.5884 340.855 64.5884H347.197V74.9545H339.35C327.309 74.9545 321.178 69.3961 321.178 57.4295V33.0681H311.178V22.7019V22.7019Z" fill="#F3F3EF"/>
<path d="M354.289 0.263657H366.974V13.4028H354.289V0.263657V0.263657ZM366.655 22.7019V74.9483H354.72V22.7019H366.655Z" fill="#F3F3EF"/>
<path d="M374.82 48.881C374.82 33.1735 386.968 21.3123 402.344 21.3123C415.029 21.3123 425.785 29.8608 427.395 41.3995H415.247C414.061 36.3808 408.474 32.4229 402.132 32.4229C393.317 32.4229 386.544 39.3709 386.544 48.8747C386.544 58.2793 393.317 65.2211 402.132 65.2211C408.474 65.2211 414.067 61.3749 415.353 55.8165H427.395C425.997 67.9941 415.141 76.3317 402.344 76.3317C386.968 76.3317 374.82 64.576 374.82 48.8747V48.881Z" fill="#F3F3EF"/>
<path d="M433.956 58.9245H445.355C445.786 63.7323 449.762 67.045 455.786 67.045C461.698 67.045 465.138 64.1603 465.138 60.3141C465.138 49.2035 434.924 57.0014 434.924 37.5532C434.924 27.7206 443.201 21.3123 454.6 21.3123C466.105 21.3123 474.707 26.8707 475.781 37.3361H464.064C463.421 33.3845 459.657 30.2827 454.494 30.2827C450.087 30.2827 446.11 32.2058 446.11 36.3746C446.11 46.7407 476.755 38.6203 476.755 58.9183C476.755 69.1728 468.153 76.3317 455.786 76.3317C443.42 76.3317 434.824 69.9234 433.962 58.9183L433.956 58.9245Z" fill="#F3F3EF"/>
<path d="M24.7704 0.158203H0.0437012V12.0256L25.5257 12.0132C39.3966 12.0132 49.3972 22.9129 49.3972 37.2307C49.3972 51.9765 39.2905 63.0871 25.5257 63.0871H12.6224V49.6874H0.0437012V74.9483H24.7704C46.4882 74.9483 62.2943 58.9183 62.2943 37.2307C62.2943 15.9711 46.4882 0.158203 24.7704 0.158203V0.158203Z" fill="#F3F3EF"/>
<path d="M12.6037 24.563H0V37.088H12.6037V24.563Z" fill="#F3F3EF"/>
</svg>
