<?xml version="1.0" encoding="UTF-8"?><svg id="Layer_1" xmlns="http://www.w3.org/2000/svg" viewBox="0 0 534.75 160.43"><defs><style>.cls-1{fill:#fafaf4;}</style></defs><path class="cls-1" d="M80.2,0C35.98,0,0,35.98,0,80.21s35.98,80.21,80.2,80.21,80.2-35.98,80.2-80.21S124.42,0,80.2,0ZM154.03,80.21c0,40.72-33.12,73.84-73.83,73.84S6.37,120.93,6.37,80.21,39.49,6.37,80.2,6.37s73.83,33.13,73.83,73.84Z"/><path class="cls-1" d="M64.02,99.03h-6.1v-36.16h9.52l10.91,22.71,10.91-22.71h9.46v36.16h-6.1v-28.24l-12.62,25.09h-3.41l-12.57-25.09v28.24Z"/><path class="cls-1" d="M110.15,99.23c-1.62,0-3.01-.58-4.14-1.74-1.12-1.15-1.68-2.54-1.68-4.15s.57-3,1.69-4.13c1.13-1.13,2.52-1.7,4.13-1.7s3,.57,4.15,1.68c1.15,1.13,1.74,2.53,1.74,4.14s-.58,3.01-1.72,4.16c-1.15,1.15-2.55,1.73-4.16,1.73ZM110.15,90.69c-.76,0-1.37.24-1.89.77-.52.52-.77,1.13-.77,1.89s.25,1.39.78,1.93c.52.53,1.12.78,1.88.78s1.38-.25,1.92-.8c.54-.54.79-1.15.79-1.92s-.25-1.35-.79-1.88c-.54-.53-1.16-.78-1.93-.78Z"/><path class="cls-1" d="M210.99,99.29h-6.12v-36.22h9.54l10.93,22.75,10.93-22.75h9.48v36.22h-6.11v-28.29l-12.64,25.13h-3.42l-12.59-25.13v28.29Z"/><path class="cls-1" d="M329.08,63.07h6.12v36.22h-6.63l-20.51-26.43v26.43h-6.12v-36.22h6.12l21.03,27.05v-27.05Z"/><path class="cls-1" d="M360.87,68.67v30.62h-6.11v-30.62h-10.98v-5.6h28.08v5.6h-10.98Z"/><path class="cls-1" d="M407.03,63.07v5.75h-19.32v9.58h15.66v5.44h-15.66v9.69h19.94v5.75h-26.06v-36.22h25.44Z"/><path class="cls-1" d="M447.49,74.83c0,5.98-2.61,9.74-7.82,11.3l9.48,13.16h-7.77l-8.65-12.18h-8.03v12.18h-6.12v-36.22h13.47c5.53,0,9.48.93,11.86,2.8,2.39,1.87,3.57,4.85,3.57,8.96ZM439.35,79.96c1.25-1.07,1.87-2.79,1.87-5.16s-.64-3.99-1.92-4.87c-1.28-.88-3.55-1.32-6.84-1.32h-7.77v12.95h7.61c3.45,0,5.8-.53,7.04-1.61Z"/><path class="cls-1" d="M488.31,74.83c0,5.98-2.61,9.74-7.82,11.3l9.48,13.16h-7.77l-8.65-12.18h-8.03v12.18h-6.12v-36.22h13.47c5.53,0,9.48.93,11.86,2.8,2.39,1.87,3.57,4.85,3.57,8.96ZM480.18,79.96c1.25-1.07,1.87-2.79,1.87-5.16s-.64-3.99-1.92-4.87c-1.28-.88-3.55-1.32-6.84-1.32h-7.77v12.95h7.61c3.45,0,5.8-.53,7.04-1.61Z"/><path class="cls-1" d="M273.53,66.99c7.57,0,13.73,6.16,13.73,13.74s-6.16,13.74-13.73,13.74-13.73-6.16-13.73-13.74,6.16-13.74,13.73-13.74M273.53,61.27c-10.74,0-19.45,8.71-19.45,19.46s8.71,19.46,19.45,19.46,19.45-8.71,19.45-19.46-8.71-19.46-19.45-19.46h0Z"/><path class="cls-1" d="M515.3,66.99c7.57,0,13.73,6.16,13.73,13.74s-6.16,13.74-13.73,13.74-13.73-6.16-13.73-13.74,6.16-13.74,13.73-13.74M515.3,61.27c-10.74,0-19.45,8.71-19.45,19.46s8.71,19.46,19.45,19.46,19.45-8.71,19.45-19.46-8.71-19.46-19.45-19.46h0Z"/></svg>