<svg width="258" height="48" viewBox="0 0 258 48" fill="none" xmlns="http://www.w3.org/2000/svg">
<path d="M22.6 15.3H26.6C29.1 15.3 31.7 15.8 31.7 18.7C31.7 21.2 30.1 23 25.4 23H21L22.6 15.3ZM5 43.6H16.6L19 32.1H26.9C36.9 32.1 43.4 25.5 43.4 17.8C43.4 9.4 38.9 5.5 31.9 5.5H13L5 43.6Z" fill="white"/>
<path d="M57.7001 18.6L59.1001 30H51.8001L57.7001 18.6ZM32.6001 43.6H44.6001L47.5001 38.2H59.9001L60.5001 43.6H72.0001L66.2001 5.5H54.6001L32.6001 43.6Z" fill="white"/>
<path d="M76.9 29.6L68.7 5.5H80.5L84.1 19.7L93.4 5.5H107.2L88.6 29.5L85.7 43.6H74L76.9 29.6Z" fill="white"/>
<path d="M135.2 29.1C134.5 33 131.5 44.5 115.6 44.5C104.5 44.5 99.2 37.3 99.2 27.1C99.2 14.8 106.9 4.5 119.9 4.5C128.4 4.5 136 8.2 136.2 19.6H125.1C125.2 16 123.5 14 119.9 14C113.4 14 111 21.5 111 26.9C111 30.1 111.8 34.9 117.2 34.9C120.9 34.9 123 32.4 123.7 29L135.2 29.1Z" fill="white"/>
<path d="M142 5.5H153.8L151 18.7H161.7L164.5 5.5H176.3L168.3 43.6H156.6L159.7 28.5H149L145.8 43.6H134.1L142 5.5Z" fill="white"/>
<path d="M179.4 5.5H210.9L208.9 15.3H189.1L188.1 20H206.5L204.6 29.1H186.2L185.2 33.8H205.4L203.4 43.6H171.4L179.4 5.5Z" fill="white"/>
<path d="M219 23.4L210.2 5.5H223L226.7 15.4L234.3 5.5H248.2L232.3 23.4L241.6 43.6H228.4L224.2 33L215.3 43.6H200.9L219 23.4Z" fill="white"/>
<path d="M249.7 7.20005C249.7 5.80005 250.7 4.70005 252.1 4.70005C253.4 4.70005 254.5 5.80005 254.5 7.20005C254.5 8.60005 253.5 9.70005 252.1 9.70005C250.8 9.70005 249.7 8.60005 249.7 7.20005ZM249.2 7.20005C249.2 8.90005 250.5 10.1 252.1 10.1C253.7 10.1 255 8.90005 255 7.20005C255 5.60005 253.7 4.30005 252.1 4.30005C250.5 4.30005 249.2 5.60005 249.2 7.20005ZM251 8.90005H251.5V7.50005H252L252.9 9.00005H253.5L252.5 7.50005C253 7.50005 253.4 7.20005 253.4 6.60005C253.4 5.90005 253 5.60005 252.2 5.60005H251V8.90005ZM251.5 6.00005H252.2C252.6 6.00005 252.9 6.10005 252.9 6.50005C252.9 7.00005 252.5 7.10005 252 7.10005H251.5V6.00005Z" fill="white"/>
</svg>
