<svg width="104" height="27" viewBox="0 0 104 27" fill="none" xmlns="http://www.w3.org/2000/svg">
<g clip-path="url(#clip0_2536_2224)">
<path fill-rule="evenodd" clip-rule="evenodd" d="M104 3.58L102.92 1.75L99.92 3.42V0.08H97.82V3.42L94.87 1.75L93.79 3.58L96.74 5.25L93.79 6.93L94.87 8.76L97.82 7.09V10.43H100V7.09L103 8.76L104 6.93L101 5.25L104 3.58ZM88.32 17.84H87.48C85 17.84 81.01 18.17 81.01 20.84C81.01 22.11 81.96 23.31 83.94 23.31C86.49 23.31 88.32 20.62 88.32 18.31V17.84ZM93.07 14.62V26.55H88.62V25C88.6199 24.5488 88.6466 24.098 88.7 23.65H88.62C88.0616 24.7156 87.2084 25.598 86.1623 26.192C85.1161 26.786 83.9212 27.0665 82.72 27C79.25 27 76.13 24.87 76.13 21.05C76.13 15 84.47 14.58 87.63 14.58H88.28V14.32C88.28 11.82 86.68 10.96 84.55 10.96C82.6399 11.0734 80.797 11.7062 79.22 12.79L77.39 9.39C79.6204 7.82941 82.2779 6.9948 85 7C90.11 7 93.07 9.8 93.07 14.62ZM67.76 7C66.353 6.95923 64.9626 7.31206 63.7453 8.01876C62.5281 8.72546 61.5322 9.75796 60.87 11H60.8C60.8462 10.5682 60.8696 10.1343 60.87 9.7V7.48H56.23V26.55H61.06V17.8C61.0361 16.9406 61.1509 16.0829 61.4 15.26C61.7226 14.1286 62.4084 13.1347 63.3518 12.4317C64.2951 11.7287 65.4436 11.3556 66.62 11.37C69.1 11.37 69.7 12.94 69.7 15.26V26.55H74.5V14.29C74.5 9.24 72.06 7 67.76 7ZM49.76 17C49.76 15.4697 49.1521 14.0021 48.07 12.92C46.9879 11.8379 45.5203 11.23 43.99 11.23C42.4597 11.23 40.9921 11.8379 39.91 12.92C38.8279 14.0021 38.22 15.4697 38.22 17C38.22 18.5303 38.8279 19.9979 39.91 21.08C40.9921 22.1621 42.4597 22.77 43.99 22.77C45.5203 22.77 46.9879 22.1621 48.07 21.08C49.1521 19.9979 49.76 18.5303 49.76 17ZM54.67 17C54.67 22.87 49.91 27 44.01 27C38.11 27 33.31 22.89 33.31 17C33.31 11.11 38 7 43.93 7C49.86 7 54.63 11.18 54.63 17H54.67ZM38.6 4.38H42.33V0H38.6V4.38ZM45.6 4.38H49.3V0H45.6V4.38ZM27.58 16L33.71 7.47H28.34L23.66 14.2H21.26V0H16.43V26.55H21.26V18.21H23.77L28.91 26.55H34.47L27.58 16.08V16ZM15 21.28C15 24.46 12.15 27 7.54 27C4.76332 27.0519 2.06976 26.0517 0 24.2L2.21 20.87C3.66122 22.1908 5.53844 22.9467 7.5 23C8.87 23 10.05 22.4 10.05 21.28C10.05 18.44 0.61 18.81 0.61 12.68C0.61 9.09 3.85 7 8 7C12.38 7 14.51 9.17 14.51 9.17L12.72 12.68C11.3783 11.617 9.71157 11.0485 8 11.07C6.74 11.07 5.52 11.59 5.52 12.79C5.52 15.48 15 15.15 15 21.28Z" fill="#F8F8F8"/>
</g>
<defs>
<clipPath id="clip0_2536_2224">
<rect width="104" height="27" fill="white"/>
</clipPath>
</defs>
</svg>
